<?xml version="1.0" encoding="UTF-8"?>
<svg width="44px" height="41px" viewBox="0 0 44 41" version="1.1" xmlns="http://www.w3.org/2000/svg" xmlns:xlink="http://www.w3.org/1999/xlink">
    <!-- Generator: Sketch 52.5 (67469) - http://www.bohemiancoding.com/sketch -->
    <title>药箱 copy</title>
    <desc>Created with Sketch.</desc>
    <g id="小程序" stroke="none" stroke-width="1" fill="none" fill-rule="evenodd">
        <g id="问诊诊断出结果推荐药" transform="translate(-73.000000, -318.000000)">
            <g id="药箱-copy" transform="translate(71.000000, 314.000000)">
                <rect id="矩形" fill="#000000" opacity="0" x="0" y="0" width="48.3" height="48.3"></rect>
                <path d="M31.2251953,26.6593359 L26.0791699,26.6593359 L26.0791699,21.5180273 C26.0791699,20.456748 25.2112793,19.5888574 24.15,19.5888574 C23.0887207,19.5888574 22.2208301,20.456748 22.2208301,21.5180273 L22.2208301,26.6640527 L17.0748047,26.6640527 C16.0135254,26.6640527 15.1456348,27.5319434 15.1456348,28.5932227 C15.1456348,29.654502 16.0135254,30.5223926 17.0748047,30.5223926 L22.2208301,30.5223926 L22.2208301,35.668418 C22.2208301,36.7296973 23.0887207,37.5975879 24.15,37.5975879 C25.2112793,37.5975879 26.0791699,36.7296973 26.0791699,35.668418 L26.0791699,30.5223926 L31.2251953,30.5223926 C32.2864746,30.5223926 33.1543652,29.654502 33.1543652,28.5932227 C33.1543652,27.5319434 32.2864746,26.6593359 31.2251953,26.6593359 Z" id="路径" fill="#597EF7"></path>
                <path d="M24.15,38.2390723 C22.7302441,38.2390723 21.5793457,37.083457 21.5793457,35.668418 L21.5793457,31.163877 L17.0748047,31.163877 C15.6550488,31.163877 14.5041504,30.0082617 14.5041504,28.5932227 C14.5041504,27.1781836 15.6597656,26.0225684 17.0748047,26.0225684 L21.5793457,26.0225684 L21.5793457,21.5180273 C21.5793457,20.0982715 22.7349609,18.947373 24.15,18.947373 C25.5697559,18.947373 26.7206543,20.1029883 26.7206543,21.5180273 L26.7206543,26.0225684 L31.2251953,26.0225684 C32.6449512,26.0225684 33.7958496,27.1781836 33.7958496,28.5932227 C33.7958496,30.0082617 32.6402344,31.163877 31.2251953,31.163877 L26.7206543,31.163877 L26.7206543,35.668418 C26.7206543,37.083457 25.5697559,38.2390723 24.15,38.2390723 Z M17.0748047,27.3055371 C16.3672852,27.3055371 15.7871191,27.8809863 15.7871191,28.5932227 C15.7871191,29.305459 16.3625684,29.8809082 17.0748047,29.8809082 L22.2208301,29.8809082 C22.5745898,29.8809082 22.8623145,30.1686328 22.8623145,30.5223926 L22.8623145,35.668418 C22.8623145,36.3759375 23.4377637,36.9561035 24.15,36.9561035 C24.8575195,36.9561035 25.4376855,36.3806543 25.4376855,35.668418 L25.4376855,30.5223926 C25.4376855,30.1686328 25.7254102,29.8809082 26.0791699,29.8809082 L31.2251953,29.8809082 C31.9327148,29.8809082 32.5128809,29.305459 32.5128809,28.5932227 C32.5128809,27.8809863 31.9327148,27.3055371 31.2251953,27.3055371 L26.0791699,27.3055371 C25.7254102,27.3055371 25.4376855,27.0178125 25.4376855,26.6640527 L25.4376855,21.5180273 C25.4376855,20.8105078 24.8622363,20.2303418 24.15,20.2303418 C23.4424805,20.2303418 22.8623145,20.805791 22.8623145,21.5180273 L22.8623145,26.6640527 C22.8623145,27.0178125 22.5745898,27.3055371 22.2208301,27.3055371 L17.0748047,27.3055371 Z" id="形状" fill="#597EF7" fill-rule="nonzero"></path>
                <path d="M41.5172461,44.2388379 L6.78275391,44.2388379 C4.65547852,44.2388379 2.92441406,42.5077734 2.92441406,40.380498 L2.92441406,16.8012305 C2.92441406,14.6739551 4.65547852,12.9428906 6.78275391,12.9428906 L41.5172461,12.9428906 C43.6445215,12.9428906 45.3755859,14.6739551 45.3755859,16.8012305 L45.3755859,40.3757813 C45.3755859,42.5077734 43.6445215,44.2388379 41.5172461,44.2388379 Z M6.78275391,14.2305762 C5.36299805,14.2305762 4.21209961,15.3861914 4.21209961,16.8012305 L4.21209961,40.3757813 C4.21209961,41.7955371 5.36771484,42.9464355 6.78275391,42.9464355 L41.5172461,42.9464355 C42.937002,42.9464355 44.0879004,41.7908203 44.0879004,40.3757813 L44.0879004,16.8012305 C44.0879004,15.3814746 42.9322852,14.2305762 41.5172461,14.2305762 L6.78275391,14.2305762 Z" id="形状" fill="#597EF7" fill-rule="nonzero"></path>
                <path d="M34.0081055,14.2305762 L14.2918945,14.2305762 C13.9381348,14.2305762 13.6504102,13.9428516 13.6504102,13.5890918 L13.6504102,8.13647461 C13.6504102,5.8912793 15.4758105,4.06116211 17.7257227,4.06116211 L30.5789941,4.06116211 C32.8241895,4.06116211 34.6543066,5.8865625 34.6543066,8.13647461 L34.6543066,13.5890918 C34.6495898,13.9428516 34.3618652,14.2305762 34.0081055,14.2305762 Z M14.9380957,12.9428906 L33.3666211,12.9428906 L33.3666211,8.13647461 C33.3666211,6.59879883 32.1166699,5.34884766 30.5789941,5.34884766 L17.7210059,5.34884766 C16.1833301,5.34884766 14.9333789,6.59879883 14.9333789,8.13647461 L14.9333789,12.9428906 L14.9380957,12.9428906 Z" id="形状" fill="#597EF7" fill-rule="nonzero"></path>
                <path d="M11.6363379,14.9192285 L8.88172852,14.9192285 C8.52796875,14.9192285 8.24024414,14.5323719 8.24024414,14.0567285 L8.24024414,12.7629785 C8.24024414,12.2873351 8.52796875,11.9004785 8.88172852,11.9004785 L11.6363379,11.9004785 C11.9900977,11.9004785 12.2778223,12.2873351 12.2778223,12.7629785 L12.2778223,14.0567285 C12.2778223,14.5323719 11.9900977,14.9192285 11.6363379,14.9192285 Z M39.4229883,14.9192285 L36.6683789,14.9192285 C36.3146191,14.9192285 36.0268945,14.5323719 36.0268945,14.0567285 L36.0268945,12.7629785 C36.0268945,12.2873351 36.3146191,11.9004785 36.6683789,11.9004785 L39.4229883,11.9004785 C39.776748,11.9004785 40.0644727,12.2873351 40.0644727,12.7629785 L40.0644727,14.0567285 C40.0644727,14.5323719 39.776748,14.9192285 39.4229883,14.9192285 Z" id="形状" fill="#597EF7" fill-rule="nonzero"></path>
            </g>
        </g>
    </g>
</svg>