<?xml version="1.0" encoding="UTF-8"?>
<svg width="32px" height="31px" viewBox="0 0 32 31" version="1.1" xmlns="http://www.w3.org/2000/svg" xmlns:xlink="http://www.w3.org/1999/xlink">
    <!-- Generator: Sketch 52.4 (67378) - http://www.bohemiancoding.com/sketch -->
    <title>分组 16</title>
    <desc>Created with Sketch.</desc>
    <g id="页面-1" stroke="none" stroke-width="1" fill="none" fill-rule="evenodd" stroke-linecap="round">
        <g id="症状卡" transform="translate(-243.000000, -1072.000000)" fill-rule="nonzero" stroke="#FFFFFF" stroke-width="2">
            <g id="分组-16" transform="translate(244.000000, 1072.000000)">
                <path d="M16.4585119,4.33761525 L1.80556162,4.33761525 C0.703795613,4.25596535 0.152912607,4.82599948 0.152912607,6.04771764 C0.152912607,7.26943579 0.152912607,14.5251655 0.152912607,27.8149069 C0.188990587,28.9239987 0.937001596,29.4785446 2.39694563,29.4785446 C3.85688967,29.4785446 10.1254387,29.4785446 21.2025928,29.4785446 C22.6443244,29.5192853 23.3651902,28.9647394 23.3651902,27.8149069 C23.3651902,26.6650743 23.3651902,23.1925126 23.3651902,17.3972217" id="路径-4"></path>
                <path d="M19.4257613,-1.01850352 L22.1344582,4.06297077 L21.3473269,22.4799574 C20.6422244,23.3842167 19.7453122,23.8340725 18.6565902,23.8295246 C17.5678683,23.8249768 16.6833433,23.5231716 16.0030154,22.9241089 L16.2907412,4.24310227 L19.4257613,-1.01850352 Z" id="三角形" stroke-linejoin="round" transform="translate(19.068737, 11.405528) rotate(-136.000000) translate(-19.068737, -11.405528) "></path>
            </g>
        </g>
    </g>
</svg>