<?xml version="1.0" encoding="UTF-8"?>
<svg width="20px" height="20px" viewBox="0 0 20 20" version="1.1" xmlns="http://www.w3.org/2000/svg" xmlns:xlink="http://www.w3.org/1999/xlink">
    <!-- Generator: Sketch 52.5 (67469) - http://www.bohemiancoding.com/sketch -->
    <title>关闭</title>
    <desc>Created with Sketch.</desc>
    <g id="页面-1" stroke="none" stroke-width="1" fill="none" fill-rule="evenodd">
        <g id="问诊结果反馈" transform="translate(-306.000000, -228.000000)" fill="#1E57D6">
            <g id="关闭" transform="translate(306.000000, 228.000000)">
                <rect id="矩形" opacity="0" x="0" y="0" width="20" height="20"></rect>
                <path d="M10.0083333,19.175 C4.95,19.175 0.835416667,15.0604167 0.835416667,10.0020833 C0.835416666,4.94375 4.95,0.829166667 10.0083333,0.829166667 C15.0666667,0.829166667 19.18125,4.94375 19.18125,10.0020833 C19.18125,15.0604167 15.0666667,19.175 10.0083333,19.175 Z M10.0083333,2.05208333 C5.625,2.05208333 2.05833333,5.61875 2.05833333,10.0020833 C2.05833333,14.3854167 5.625,17.9520833 10.0083333,17.9520833 C14.3916667,17.9520833 17.95625,14.3854167 17.95625,10.0020833 C17.95625,5.61875 14.3916667,2.05208333 10.0083333,2.05208333 Z" id="形状" fill-rule="nonzero"></path>
                <polygon id="路径" points="6.51910417 7.37816667 7.38383333 6.5134375 13.4988333 12.6284375 12.6341042 13.4931667"></polygon>
                <polygon id="路径" points="6.51910417 12.6284375 12.6341042 6.5134375 13.4988333 7.37816667 7.38383333 13.4931667"></polygon>
            </g>
        </g>
    </g>
</svg>