<?xml version="1.0" encoding="UTF-8"?>
<svg width="378px" height="378px" viewBox="0 0 378 378" version="1.1" xmlns="http://www.w3.org/2000/svg" xmlns:xlink="http://www.w3.org/1999/xlink">
    <!-- Generator: Sketch 52.5 (67469) - http://www.bohemiancoding.com/sketch -->
    <title>分组 18</title>
    <desc>Created with Sketch.</desc>
    <defs>
        <filter x="-42.9%" y="-42.9%" width="185.7%" height="185.7%" filterUnits="objectBoundingBox" id="filter-1">
            <feGaussianBlur stdDeviation="32" in="SourceGraphic"></feGaussianBlur>
        </filter>
        <rect id="path-2" x="79" y="66" width="82" height="44"></rect>
        <mask id="mask-3" maskContentUnits="userSpaceOnUse" maskUnits="objectBoundingBox" x="0" y="0" width="82" height="44" fill="white">
            <use xlink:href="#path-2"></use>
        </mask>
    </defs>
    <g id="页面-1" stroke="none" stroke-width="1" fill="none" fill-rule="evenodd">
        <g id="搜索-缺省" transform="translate(1.000000, -115.000000)" fill-rule="nonzero">
            <g id="分组-18" transform="translate(76.000000, 192.000000)">
                <circle id="椭圆形" fill="#F4FEFF" filter="url(#filter-1)" cx="112" cy="112" r="112"></circle>
                <g id="分组-17" transform="translate(16.000000, 24.000000)">
                    <circle id="椭圆形" fill="#E0ECFA" cx="88" cy="27" r="2"></circle>
                    <circle id="椭圆形" stroke="#EDF8FE" cx="134.5" cy="3.5" r="3.5"></circle>
                    <path d="M174,23 L174,19 L178,19 L178,23 L182,23 L182,27 L178,27 L178,31 L174,31 L174,27 L170,27 L170,23 L174,23 Z" id="合并形状" fill="#D7EFF9"></path>
                    <path d="M184.5,94 L184.5,90.5 L188.5,90.5 L188.5,94 L192,94 L192,98 L188.5,98 L188.5,101.5 L184.5,101.5 L184.5,98 L181,98 L181,94 L184.5,94 Z" id="合并形状" fill="#E6F4FD"></path>
                    <path d="M162,146 L166,146 L166,149 L162,149 L162,153 L159,153 L159,149 L155,149 L155,146 L159,146 L159,142 L162,142 L162,146 Z" id="合并形状" fill="#E2EEFC"></path>
                    <path d="M5,119 L5,114 L9,114 L9,119 L14,119 L14,123 L9,123 L9,128 L5,128 L5,123 L0,123 L0,119 L5,119 Z" id="合并形状" fill="#ABD4FF"></path>
                    <circle id="椭圆形" stroke="#B4CBEB" cx="73" cy="148" r="4"></circle>
                    <path d="M19,81 L19,78 L21,78 L21,81 L24,81 L24,83 L21,83 L21,86 L19,86 L19,83 L16,83 L16,81 L19,81 Z" id="合并形状" fill="#D1E8FA"></path>
                    <ellipse id="椭圆形" stroke="#9FD0F8" cx="20" cy="30.5" rx="3" ry="3.5"></ellipse>
                    <rect id="矩形" stroke="#4BA3F5" fill="#DEF8F9" x="49.5" y="53.5" width="90" height="86"></rect>
                    <rect id="矩形" stroke="#4AA9FB" fill="#FFFFFF" x="60.5" y="45.5" width="69" height="85"></rect>
                    <rect id="矩形-copy-10" stroke="#4AA9FB" fill="#FFFFFF" x="79.5" y="32.5" width="31" height="13"></rect>
                    <use id="矩形" stroke="#4DA7FB" mask="url(#mask-3)" stroke-width="2" fill="#FFFFFF" stroke-dasharray="8,4" xlink:href="#path-2"></use>
                    <rect id="矩形" fill="#51A9FD" x="92" y="81" width="15" height="15"></rect>
                    <path d="M98,87 L98,83 L101,83 L101,87 L105,87 L105,90 L101,90 L101,94 L98,94 L98,90 L94,90 L94,87 L98,87 Z" id="合并形状" fill="#D8F7FA"></path>
                    <rect id="矩形" fill="#E4FCFE" x="117" y="85" width="25" height="2"></rect>
                    <rect id="矩形-copy-16" fill="#E4FCFE" x="117" y="93" width="37" height="2"></rect>
                </g>
            </g>
        </g>
    </g>
</svg>