<?xml version="1.0" encoding="UTF-8"?>
<svg width="13px" height="13px" viewBox="0 0 13 13" version="1.1" xmlns="http://www.w3.org/2000/svg" xmlns:xlink="http://www.w3.org/1999/xlink">
    <!-- Generator: Sketch 52.5 (67469) - http://www.bohemiancoding.com/sketch -->
    <title>疾病详情跳转</title>
    <desc>Created with Sketch.</desc>
    <g id="页面-1" stroke="none" stroke-width="1" fill="none" fill-rule="evenodd">
        <g id="问诊得出结果" transform="translate(-218.000000, -401.000000)" fill-rule="nonzero">
            <g id="疾病详情跳转" transform="translate(218.000000, 401.000000)">
                <circle id="椭圆形" fill="#1E57D6" cx="6.5" cy="6.5" r="6.5"></circle>
                <path d="M7.17157288,1.82842712 L7.17157288,1.82842712 C7.72385763,1.82842712 8.17157288,2.27614237 8.17157288,2.82842712 L8.17157288,6.82842712 C8.17157288,7.38071187 7.72385763,7.82842712 7.17157288,7.82842712 L7.17157288,7.82842712 C6.61928813,7.82842712 6.17157288,7.38071187 6.17157288,6.82842712 L6.17157288,2.82842712 C6.17157288,2.27614237 6.61928813,1.82842712 7.17157288,1.82842712 Z" id="矩形" fill="#FFFFFF" transform="translate(7.171573, 4.828427) rotate(-585.000000) translate(-7.171573, -4.828427) "></path>
                <path d="M7.17157288,4.82842712 L7.17157288,4.82842712 C7.72385763,4.82842712 8.17157288,5.27614237 8.17157288,5.82842712 L8.17157288,9.82842712 C8.17157288,10.3807119 7.72385763,10.8284271 7.17157288,10.8284271 L7.17157288,10.8284271 C6.61928813,10.8284271 6.17157288,10.3807119 6.17157288,9.82842712 L6.17157288,5.82842712 C6.17157288,5.27614237 6.61928813,4.82842712 7.17157288,4.82842712 Z" id="矩形-copy-4" fill="#FFFFFF" transform="translate(7.171573, 7.828427) rotate(-315.000000) translate(-7.171573, -7.828427) "></path>
            </g>
        </g>
    </g>
</svg>