<?xml version="1.0" encoding="UTF-8"?>
<svg width="36px" height="36px" viewBox="0 0 36 36" version="1.1" xmlns="http://www.w3.org/2000/svg" xmlns:xlink="http://www.w3.org/1999/xlink">
    <!-- Generator: Sketch 52.4 (67378) - http://www.bohemiancoding.com/sketch -->
    <title>文字键盘icon</title>
    <desc>Created with Sketch.</desc>
    <defs>
        <linearGradient x1="50%" y1="0%" x2="50%" y2="100%" id="linearGradient-1">
            <stop stop-color="#8067F9" offset="0%"></stop>
            <stop stop-color="#1F77FD" offset="100%"></stop>
        </linearGradient>
    </defs>
    <g id="页面-1" stroke="none" stroke-width="1" fill="none" fill-rule="evenodd">
        <g id="森特聊天助手" transform="translate(-12.000000, -714.000000)" fill-rule="nonzero">
            <g id="界面" transform="translate(-1.000000, 0.000000)">
                <g id="文字键盘icon" transform="translate(14.000000, 715.000000)">
                    <circle id="椭圆形-copy-6" stroke="#DCDEE3" stroke-width="0.5" fill="#FFFFFF" cx="17" cy="17" r="17"></circle>
                    <path d="M24.4421605,16 L24.4421605,12.1194343 C24.4421605,11.2910072 25.1137334,10.6194343 25.9421605,10.6194343 C26.7705876,10.6194343 27.4421605,11.2910072 27.4421605,12.1194343 L27.4421605,17.1194343 C27.4421605,17.6793892 27.1353356,18.1676813 26.6806379,18.4253585 C26.406031,18.775232 25.9792642,19 25.5,19 L19.5,19 C18.6715729,19 18,18.3284271 18,17.5 C18,16.6715729 18.6715729,16 19.5,16 L24.4421605,16 Z M19.5,10 L20.5,10 C21.3284271,10 22,10.6715729 22,11.5 C22,12.3284271 21.3284271,13 20.5,13 L19.5,13 C18.6715729,13 18,12.3284271 18,11.5 C18,10.6715729 18.6715729,10 19.5,10 Z M13.5,10 L15.5,10 C16.3284271,10 17,10.6715729 17,11.5 C17,12.3284271 16.3284271,13 15.5,13 L13.5,13 C12.6715729,13 12,12.3284271 12,11.5 C12,10.6715729 12.6715729,10 13.5,10 Z M8.5,10 L9.5,10 C10.3284271,10 11,10.6715729 11,11.5 C11,12.3284271 10.3284271,13 9.5,13 L8.5,13 C7.67157288,13 7,12.3284271 7,11.5 C7,10.6715729 7.67157288,10 8.5,10 Z M8.5,16 L9.5,16 C10.3284271,16 11,16.6715729 11,17.5 C11,18.3284271 10.3284271,19 9.5,19 L8.5,19 C7.67157288,19 7,18.3284271 7,17.5 C7,16.6715729 7.67157288,16 8.5,16 Z M13.5,16 L15.5,16 C16.3284271,16 17,16.6715729 17,17.5 C17,18.3284271 16.3284271,19 15.5,19 L13.5,19 C12.6715729,19 12,18.3284271 12,17.5 C12,16.6715729 12.6715729,16 13.5,16 Z M9,21 L26,21 C27.1045695,21 28,21.8954305 28,23 C28,24.1045695 27.1045695,25 26,25 L9,25 C7.8954305,25 7,24.1045695 7,23 C7,21.8954305 7.8954305,21 9,21 Z" id="合并形状" fill="url(#linearGradient-1)"></path>
                </g>
            </g>
        </g>
    </g>
</svg>