<?xml version="1.0" encoding="UTF-8"?>
<svg width="35px" height="34px" viewBox="0 0 35 34" version="1.1" xmlns="http://www.w3.org/2000/svg" xmlns:xlink="http://www.w3.org/1999/xlink">
    <!-- Generator: Sketch 52.4 (67378) - http://www.bohemiancoding.com/sketch -->
    <title>问诊记录</title>
    <desc>Created with Sketch.</desc>
    <g id="页面-1" stroke="none" stroke-width="1" fill="none" fill-rule="evenodd" stroke-linecap="round">
        <g id="病症主页" transform="translate(-222.000000, -1595.000000)" fill-rule="nonzero" stroke="#50E3C2" stroke-width="2">
            <g id="问诊记录" transform="translate(223.000000, 1594.000000)">
                <path d="M18.1043631,4.91596395 L1.98611779,4.91596395 C0.774175174,4.8234274 0.168203868,5.46946608 0.168203868,6.85407999 C0.168203868,8.23869389 0.168203868,16.4618543 0.168203868,31.5235611 C0.207889646,32.7805318 1.03070176,33.4090172 2.6366402,33.4090172 C4.24257864,33.4090172 11.1379826,33.4090172 23.3228521,33.4090172 C24.9087569,33.45519 25.7017092,32.8267047 25.7017092,31.5235611 C25.7017092,30.2204175 25.7017092,26.2848476 25.7017092,19.7168513" id="路径-4"></path>
                <path d="M21.1072848,-0.972534188 L24.2150606,4.7498519 L23.6433178,25.3130885 C22.8714254,26.3116261 21.8778881,26.7992873 20.6627061,26.7760719 C19.4475241,26.7528566 18.455292,26.4009321 17.6860099,25.7202984 L17.6959759,4.85376756 L21.1072848,-0.972534188 Z" id="三角形" stroke-linejoin="round" transform="translate(20.950535, 12.902164) rotate(-136.000000) translate(-20.950535, -12.902164) "></path>
            </g>
        </g>
    </g>
</svg>