<?xml version="1.0" encoding="UTF-8"?>
<svg width="18px" height="18px" viewBox="0 0 18 18" version="1.1" xmlns="http://www.w3.org/2000/svg" xmlns:xlink="http://www.w3.org/1999/xlink">
    <!-- Generator: Sketch 52.5 (67469) - http://www.bohemiancoding.com/sketch -->
    <title>点赞icon copy</title>
    <desc>Created with Sketch.</desc>
    <g id="页面-1" stroke="none" stroke-width="1" fill="none" fill-rule="evenodd">
        <g id="问诊结果反馈" transform="translate(-329.000000, -628.000000)" fill-rule="nonzero" stroke="#6E90F3" stroke-width="1.5">
            <g id="点赞icon-copy" transform="translate(337.500000, 637.000000) rotate(-180.000000) translate(-337.500000, -637.000000) translate(328.000000, 628.000000)">
                <path d="M3.97983248,16.8153538 L14.5055802,16.8153408 C15.0954062,16.8153401 15.6049688,16.4030376 15.7280571,15.826198 L17.2390284,8.7451964 C17.2573253,8.65944985 17.2665499,8.5720162 17.2665499,8.48433925 C17.2665499,7.79398331 16.7069059,7.23433925 16.0165499,7.23433925 L10.506786,7.23433925 L10.7796193,6.27848524 C11.4128068,4.06015322 11.4321828,2.57720818 10.9462923,1.86181947 C10.3596564,0.998100666 9.33875345,0.968056907 8.58368383,1.60249601 C8.40278938,1.75449062 8.32484958,1.99001777 8.2285638,2.70837981 C8.06022674,3.96429696 7.92819977,4.51606352 7.47737859,5.31952763 C6.92688699,6.30062672 6.02144118,7.02056667 4.79452651,7.47638587 C4.30478227,7.65833399 3.97985613,8.12567396 3.97985511,8.64812509 L3.97983248,16.8153538 Z" id="矩形"></path>
                <path d="M3.85263025,16.8107147 L3.85263025,7.74999991 L0.999998622,7.74999991 C0.861927434,7.74999991 0.749998622,7.86192872 0.749998622,7.99999991 L0.749998622,16.5607147 C0.749998622,16.6987859 0.861927434,16.8107147 0.999998622,16.8107147 L3.85263025,16.8107147 Z" id="矩形"></path>
            </g>
        </g>
    </g>
</svg>