<?xml version="1.0" encoding="UTF-8"?>
<svg width="16px" height="16px" viewBox="0 0 16 16" version="1.1" xmlns="http://www.w3.org/2000/svg" xmlns:xlink="http://www.w3.org/1999/xlink">
    <!-- Generator: Sketch 52.5 (67469) - http://www.bohemiancoding.com/sketch -->
    <title>点赞</title>
    <desc>Created with Sketch.</desc>
    <g id="页面-1" stroke="none" stroke-width="1" fill="none" fill-rule="evenodd">
        <g id="问诊得出结果" transform="translate(-324.000000, -668.000000)" fill="#6F90F3">
            <g id="点赞" transform="translate(332.000000, 676.000000) rotate(-180.000000) translate(-332.000000, -676.000000) translate(324.000000, 668.000000)">
                <rect id="矩形" opacity="0" x="0" y="0" width="16" height="16"></rect>
                <path d="M15.98776,7.79376 C15.99368,7.86736 15.98824,7.94304 15.96832,8.0184 L14.52944,14.36936 C14.5096189,14.4432016 14.4772252,14.5130767 14.43368,14.57592 C14.2796,14.88368 14.04528,15.15576 13.73368,15.35392 C13.4178851,15.5547223 13.0511072,15.660702 12.67688,15.65928 L12.67688,15.65528 L3.43464,15.65136 C3.40232,15.65616 3.36968,15.65944 3.336,15.65944 C3.30224,15.65944 3.26936,15.65624 3.2368,15.65128 L0.7784,15.65024 C0.743421488,15.6561219 0.708028777,15.6591983 0.67256,15.65944 C0.495968252,15.65944 0.326609243,15.5892892 0.201740021,15.46442 C0.0768707986,15.3395508 0.00672,15.1701917 0.00672,14.9936 L0.0128,6.99968 C0.012821216,6.82306703 0.0830007911,6.6536961 0.207900019,6.52882688 C0.332799248,6.40395766 0.502187035,6.33381878 0.6788,6.33384 C0.70624,6.33384 0.7332,6.336 0.75984,6.33928 L2.96968,6.33416 L2.96968,6.3216 C5.00288,6.17608 6.614,4.50928 6.67152,2.45288 C6.66632,2.39504 6.66272,2.33688 6.66272,2.27768 C6.66272,1.20784 7.52992,0.34056 8.59984,0.34056 C9.5192,0.34056 10.28728,0.98168 10.48568,1.84064 L10.49544,1.83936 C10.6070933,2.33924863 10.663591,2.849874 10.66392,3.36208 C10.6645759,4.14569212 10.5328561,4.92378527 10.27432,5.66352 L13.99096,5.66752 C14.02512,5.66752 14.05856,5.67096 14.09144,5.676 C14.726,5.70088 15.3372,6.02768 15.69728,6.608 C15.9176119,6.96235962 16.0193557,7.37768474 15.98776,7.79376 Z M1.33904,14.3188 L2.67072,14.31936 L2.67568,7.66656 L1.34528,7.66952 L1.33904,14.3188 Z M14.57336,7.30368 C14.4496913,7.10419884 14.2269907,6.98813929 13.99264,7.00104 L13.99264,6.99912 L13.99104,6.99912 L9.29304,6.99424 C8.92528084,6.99415165 8.62719999,6.69599917 8.6272,6.32824 C8.6272,6.2224 8.65264,6.12256 8.69664,6.03368 L8.68952,6.02784 C8.95930137,5.52486801 9.15124372,4.98389052 9.2588,4.42336 L9.26712,4.4236 C9.26712,4.4236 9.35568,4.064 9.35448,3.3744 C9.3536,2.828 9.254,2.32928 9.254,2.32928 L9.24896,2.32928 C9.24944,2.31968 9.25056,2.31016 9.25056,2.30032 C9.25056,1.95637915 8.97174085,1.67756 8.6278,1.67756 C8.28385915,1.67756 8.00504,1.95637915 8.00504,2.30032 C8.00504,2.31472 8.00632,2.32888 8.0072,2.34304 L7.99856,2.34312 C7.99856,2.34312 8.00912,2.86296 7.90536,3.40216 C7.86128,3.63088 7.79936,3.84416 7.74296,4.01312 C7.74188885,4.01259568 7.74082215,4.01206233 7.73976,4.01152 C7.1792,5.72496 5.76992,7.05312 4.0088,7.50056 L4.0024,14.31984 L12.68,14.32336 C12.70936,14.32336 12.738,14.32592 12.76632,14.32976 C12.855555,14.3179016 12.9411227,14.2866942 13.01704,14.23832 C13.1243874,14.1702486 13.208181,14.0707855 13.25704,13.95344 L13.2588,13.9544 L14.64416,7.83976 L14.6388,7.83816 C14.6965735,7.65906496 14.6726407,7.46362295 14.57336,7.30376 L14.57336,7.30368 Z" id="形状" fill-rule="nonzero"></path>
            </g>
        </g>
    </g>
</svg>