<?xml version="1.0" encoding="UTF-8"?>
<svg width="19px" height="19px" viewBox="0 0 19 19" version="1.1" xmlns="http://www.w3.org/2000/svg" xmlns:xlink="http://www.w3.org/1999/xlink">
    <!-- Generator: Sketch 52.5 (67469) - http://www.bohemiancoding.com/sketch -->
    <title>问诊记录</title>
    <desc>Created with Sketch.</desc>
    <g id="页面-1" stroke="none" stroke-width="1" fill="none" fill-rule="evenodd" stroke-linecap="round">
        <g id="个人中心" transform="translate(-30.000000, -352.000000)" fill-rule="nonzero">
            <g id="问诊记录" transform="translate(30.000000, 351.000000)">
                <path d="M10.613535,3.28664664 L1.65895433,3.28664664 C0.985652874,3.23523744 0.649002149,3.59414782 0.649002149,4.36337777 C0.649002149,5.13260772 0.649002149,9.70103015 0.649002149,18.0686451 C0.671049803,18.7669621 1.12816764,19.1161206 2.02035566,19.1161206 C2.91254369,19.1161206 6.74332367,19.1161206 13.5126956,19.1161206 C14.3937538,19.1417722 14.8342829,18.7926137 14.8342829,18.0686451 C14.8342829,17.3446764 14.8342829,15.1582487 14.8342829,11.5093618" id="路径-4" stroke="#4687FF"></path>
                <path d="M12.2818249,0.0152587846 L14.008367,3.19436217 L13.6907321,14.6183825 C13.261903,15.1731256 12.7099378,15.4440485 12.0348367,15.4311511 C11.3597356,15.4182537 10.8084956,15.2227401 10.3811166,14.8446102 L10.3866533,3.25209309 L12.2818249,0.0152587846 Z" id="三角形" stroke="#7AA9FF" stroke-linejoin="round" transform="translate(12.194742, 7.723425) rotate(-136.000000) translate(-12.194742, -7.723425) "></path>
            </g>
        </g>
    </g>
</svg>