<?xml version="1.0" encoding="UTF-8"?>
<svg width="120px" height="45px" viewBox="0 0 120 45" version="1.1" xmlns="http://www.w3.org/2000/svg" xmlns:xlink="http://www.w3.org/1999/xlink">
    <!-- Generator: Sketch 52.5 (67469) - http://www.bohemiancoding.com/sketch -->
    <title>logo 组合反白 copy</title>
    <desc>Created with Sketch.</desc>
    <g id="小程序" stroke="none" stroke-width="1" fill="none" fill-rule="evenodd">
        <g id="主页" transform="translate(-128.000000, -142.000000)" fill="#FFFFFF">
            <path d="M180.059413,171.377246 L180.059413,173.162095 L184.562319,173.162095 C184.562319,174.255364 183.67605,175.141634 182.582781,175.141634 L180.059413,175.141634 L180.059413,179.731552 C180.059413,181.210768 179.276299,181.950376 177.731824,181.950376 L174.621121,181.950376 L174.621121,180.101356 C175.447741,180.166616 176.252609,180.101356 177.01397,180.101356 C177.644812,180.101356 177.971109,179.796812 177.971109,179.209476 L177.971109,175.141634 L165.180245,175.141634 C165.180245,174.048365 166.066515,173.162095 167.159784,173.162095 L177.971109,173.162095 L177.971109,171.400088 L167.551341,171.400088 C167.551341,170.378903 168.379175,169.551069 169.40036,169.551069 L179.711363,169.551069 L179.711363,168.028347 L167.551341,168.028347 C167.551341,167.03119 168.359697,166.222834 169.356854,166.222834 L179.711363,166.222834 L179.711363,164.700112 L167.551341,164.700112 C167.551341,163.666913 168.388914,162.82934 169.422113,162.82934 L181.756161,162.82934 L181.756161,169.400088 C181.756161,170.401566 181.020075,171.231121 180.059413,171.377246 Z M170.226981,175.620203 C171.706196,176.664355 172.946127,177.708508 173.946773,178.75266 L172.467557,180.210122 C171.59743,179.209476 170.379253,178.143571 168.813025,176.990653 L170.226981,175.620203 Z M193.867238,168.876721 C193.301655,169.746847 192.692567,170.464702 191.996465,171.073791 L190.45199,169.659835 C191.844193,168.398151 192.866592,166.875429 193.475681,165.091669 L195.346453,165.613745 C195.172428,166.114068 194.998403,166.570885 194.824377,167.005948 L203.134088,167.005948 C203.134088,168.039147 202.296514,168.876721 201.263315,168.876721 L198.631182,168.876721 L198.631182,169.83386 C198.587675,170.377689 198.544169,170.878012 198.47891,171.356582 L204.417525,171.356582 C204.417525,172.425823 203.550734,173.292614 202.481493,173.292614 L198.065599,173.292614 C197.761055,174.29326 197.325992,175.163387 196.782162,175.902994 C195.694504,177.273444 193.932497,178.339349 191.452636,179.122464 L190.343224,177.38221 C192.736073,176.642602 194.367561,175.685463 195.259441,174.554298 C195.520479,174.162741 195.759763,173.727678 195.933789,173.292614 L190.473743,173.292614 C190.473743,172.223373 191.340534,171.356582 192.409775,171.356582 L196.477618,171.356582 C196.564631,170.856259 196.608137,170.355936 196.62989,169.83386 L196.62989,168.876721 L193.867238,168.876721 Z M189.341287,162.807586 L204.765576,162.807586 C204.765576,163.876827 203.898785,164.743619 202.829544,164.743619 L189.320825,164.743619 L189.320825,179.448761 L205.461677,179.448761 C205.461677,180.54203 204.575407,181.4283 203.482139,181.4283 L187.341287,181.4283 L187.341287,164.807586 C187.341287,163.703017 188.236717,162.807586 189.341287,162.807586 Z M198.147174,174.119235 C200.170219,174.989361 202.019238,176.07702 203.715985,177.360457 L202.58482,179.10071 C200.80106,177.621495 198.973794,176.468577 197.103022,175.620203 L198.147174,174.119235 Z M223.250331,182.037388 L221.031508,182.037388 L220.509432,180.101356 L222.837021,180.144863 C223.576629,180.144863 223.968186,179.731552 223.968186,178.926685 L223.968186,165.200435 L215.745488,165.200435 L215.745488,165.199143 C215.745488,164.094574 216.640918,163.199143 217.745488,163.199143 L226.078243,163.199143 L226.078243,179.470514 C226.078243,181.167261 225.121104,182.037388 223.250331,182.037388 Z M209.9361,165.700758 L210.046158,165.700758 L210.046158,180.18966 C210.046158,181.29423 209.150727,182.18966 208.046158,182.18966 L207.9361,182.18966 L207.9361,167.700758 C207.9361,166.596188 208.831531,165.700758 209.9361,165.700758 Z M214.80881,168.659189 L221.118521,168.659189 L221.118521,175.31695 C221.118521,176.42152 220.22309,177.31695 219.118521,177.31695 L212.80881,177.31695 L212.80881,170.659189 C212.80881,169.55462 213.704241,168.659189 214.80881,168.659189 Z M211.699398,161.8722 C212.678291,163.046871 213.548418,164.352061 214.331532,165.766017 L212.482512,166.723157 C211.655892,165.200435 210.764012,163.873492 209.785119,162.720574 L211.699398,161.8722 Z M219.05197,173.337412 L219.05197,170.638727 L216.875361,170.638727 C215.770792,170.638727 214.875361,171.534158 214.875361,172.638727 L214.875361,175.337412 L217.05197,175.337412 C218.156539,175.337412 219.05197,174.441982 219.05197,173.337412 Z M246.107474,164.743619 L246.107474,174.902349 L248,174.902349 C248,175.995618 247.11373,176.881887 246.020462,176.881887 L228.09585,176.881887 C228.09585,175.788618 228.982119,174.902349 230.075388,174.902349 L230.075388,166.743619 C230.075388,165.639049 230.970819,164.743619 232.075388,164.743619 L234.730567,164.743619 L234.730567,163.960504 C234.730567,162.879249 235.607097,162.002719 236.688352,162.002719 L236.688352,164.743619 L239.516264,164.743619 L239.516264,163.960504 C239.516264,162.879249 240.392794,162.002719 241.474049,162.002719 L241.474049,164.743619 L246.107474,164.743619 Z M232.054927,174.902349 L234.730567,174.902349 L234.730567,171.595867 L232.054927,171.595867 L232.054927,174.902349 Z M236.688352,174.902349 L239.516264,174.902349 L239.516264,171.595867 L236.688352,171.595867 L236.688352,174.902349 Z M241.474049,174.902349 L242.127936,174.902349 C243.232505,174.902349 244.127936,174.006918 244.127936,172.902349 L244.127936,171.595867 L241.474049,171.595867 L241.474049,174.902349 Z M232.054927,169.703341 L234.730567,169.703341 L234.730567,166.636144 L234.054927,166.636144 C232.950357,166.636144 232.054927,167.531575 232.054927,168.636144 L232.054927,169.703341 Z M236.688352,166.636144 L236.688352,169.703341 L239.516264,169.703341 L239.516264,166.636144 L236.688352,166.636144 Z M241.474049,166.636144 L241.474049,169.703341 L244.127936,169.703341 L244.127936,166.636144 L241.474049,166.636144 Z M241.125998,177.121172 C243.562353,178.078311 245.781177,179.231229 247.782468,180.601679 L246.69481,182.341933 C244.519493,180.775704 242.322423,179.557527 240.081846,178.665647 L241.125998,177.121172 Z M234.926345,177.121172 L236.209782,178.600387 C234.33901,180.101356 232.033174,181.36304 229.335781,182.385439 L228.443901,180.47116 C231.076034,179.601033 233.229598,178.491622 234.926345,177.121172 Z M129.717023,145.84289 L156.604229,142 L157.016186,142.40141 L129.832098,146.914963 L131.691026,148.080357 L158.912311,146.088298 L158.912311,186.87271 C158.262504,184.606258 157.113462,183.277231 155.465188,182.88563 C153.374159,182.388838 145.625257,182.88563 143.456156,182.88563 C140.97077,182.88563 138.485385,182.88563 136,182.88563 C131.581722,182.88563 128,179.303908 128,174.88563 L128,147.82277 C128,146.827521 128.731786,145.983706 129.717023,145.84289 Z" id="logo-组合反白-copy"></path>
        </g>
    </g>
</svg>