<?xml version="1.0" encoding="UTF-8"?>
<svg width="378px" height="378px" viewBox="0 0 378 378" version="1.1" xmlns="http://www.w3.org/2000/svg" xmlns:xlink="http://www.w3.org/1999/xlink">
    <!-- Generator: Sketch 52.5 (67469) - http://www.bohemiancoding.com/sketch -->
    <title>分组</title>
    <desc>Created with Sketch.</desc>
    <defs>
        <filter x="-42.9%" y="-42.9%" width="185.7%" height="185.7%" filterUnits="objectBoundingBox" id="filter-1">
            <feGaussianBlur stdDeviation="32" in="SourceGraphic"></feGaussianBlur>
        </filter>
    </defs>
    <g id="页面-1" stroke="none" stroke-width="1" fill="none" fill-rule="evenodd">
        <g id="问诊记录-缺省-copy" transform="translate(1.000000, -115.000000)" fill-rule="nonzero">
            <g id="分组" transform="translate(76.000000, 192.000000)">
                <circle id="椭圆形" fill="#F4FEFF" filter="url(#filter-1)" cx="112" cy="112" r="112"></circle>
                <g id="分组-30-copy" transform="translate(84.000000, 116.000000) scale(-1, 1) translate(-84.000000, -116.000000) translate(50.000000, 86.000000)">
                    <path d="M51.4409915,59.1279268 L51.4409915,50.1481001 L52,50.1481001 C60.5604136,50.1481001 67.5,43.2085137 67.5,34.6481001 L67.5,16 C67.5,7.43958638 60.5604136,0.5 52,0.5 L16,0.5 C7.43958638,0.5 0.5,7.43958638 0.5,16 L0.5,34.6481001 C0.5,43.2085137 7.43958638,50.1481001 16,50.1481001 L35.9657617,50.1481001 L36.1013496,50.1481001 L51.4409915,59.1279268 Z" id="矩形" stroke="#4EA9FF" fill="#FFFFFF"></path>
                    <path d="M44.6928137,22.0814851 L37.1119403,22.0814851 L37.1119403,14.9077563 C37.1119403,13.469343 35.945876,12.3032787 34.5074627,12.3032787 C33.0690494,12.3032787 31.9029851,13.469343 31.9029851,14.9077563 L31.9029851,22.0814851 L24.3221117,22.0814851 C22.9366066,22.0814851 21.8134328,23.2046588 21.8134328,24.5901639 C21.8134328,25.975669 22.9366066,27.0988428 24.3221117,27.0988428 L31.9029851,27.0988428 L31.9029851,34.2725716 C31.9029851,35.7109848 33.0690494,36.8770492 34.5074627,36.8770492 C35.945876,36.8770492 37.1119403,35.7109848 37.1119403,34.2725716 L37.1119403,27.0988428 L44.6928137,27.0988428 C46.0783187,27.0988428 47.2014925,25.975669 47.2014925,24.5901639 C47.2014925,23.2046588 46.0783187,22.0814851 44.6928137,22.0814851 Z" id="合并形状" stroke="#46A0F4" fill="#E6FFFF"></path>
                </g>
                <g id="分组-30" transform="translate(102.000000, 63.000000)">
                    <path d="M66.7177537,78.4893075 L66.7177537,66.5 L72,66.5 C80.5604136,66.5 87.5,59.5604136 87.5,51 L87.5,16 C87.5,7.43958638 80.5604136,0.5 72,0.5 L16,0.5 C7.43958638,0.5 0.5,7.43958638 0.5,16 L0.5,51 C0.5,59.5604136 7.43958638,66.5 16,66.5 L46.5439269,66.5 L46.6821017,66.5 L66.7177537,78.4893075 Z" id="矩形" stroke="#4EA9FF" fill="#FFFFFF"></path>
                    <path d="M57,29.5 L47.5,29.5 L47.5,20 C47.5,18.0670034 45.9329966,16.5 44,16.5 C42.0670034,16.5 40.5,18.0670034 40.5,20 L40.5,29.5 L31,29.5 C29.0670034,29.5 27.5,31.0670034 27.5,33 C27.5,34.9329966 29.0670034,36.5 31,36.5 L40.5,36.5 L40.5,46 C40.5,47.9329966 42.0670034,49.5 44,49.5 C45.9329966,49.5 47.5,47.9329966 47.5,46 L47.5,36.5 L57,36.5 C58.9329966,36.5 60.5,34.9329966 60.5,33 C60.5,31.0670034 58.9329966,29.5 57,29.5 Z" id="合并形状" stroke="#46A0F4" fill="#E6FFFF"></path>
                </g>
                <path d="M199,41 L199,37 L202,37 L202,41 L206,41 L206,44 L202,44 L202,48 L199,48 L199,44 L195,44 L195,41 L199,41 Z" id="合并形状" fill="#DDF3FF"></path>
                <circle id="椭圆形" stroke="#DDF3FF" cx="154" cy="19" r="4"></circle>
                <circle id="椭圆形" fill="#DDF3FF" cx="103.5" cy="44.5" r="2.5"></circle>
                <circle id="椭圆形" stroke="#94CDF8" cx="27" cy="48" r="4"></circle>
                <path d="M25.5,104 L25.5,101.5 L28.5,101.5 L28.5,104 L31,104 L31,107 L28.5,107 L28.5,109.5 L25.5,109.5 L25.5,107 L23,107 L23,104 L25.5,104 Z" id="合并形状" fill="#BFE5FF"></path>
                <path d="M10,147 L10,142 L14,142 L14,147 L19,147 L19,151 L14,151 L14,156 L10,156 L10,151 L5,151 L5,147 L10,147 Z" id="合并形状" fill="#ABD2F9"></path>
                <circle id="椭圆形" stroke="#8CC9FF" cx="85" cy="179" r="5"></circle>
                <polygon id="星形" stroke="#AED0F3" transform="translate(153.126851, 165.126851) rotate(20.000000) translate(-153.126851, -165.126851) " points="153.126851 167.126851 150.77571 168.362919 151.224738 165.744885 149.322625 163.890783 151.951281 163.508817 153.126851 161.126851 154.302422 163.508817 156.931077 163.890783 155.028964 165.744885 155.477992 168.362919"></polygon>
                <path d="M180,177 L180,173 L184,173 L184,177 L188,177 L188,181 L184,181 L184,185 L180,185 L180,181 L176,181 L176,177 L180,177 Z" id="合并形状" fill="#DEEFFF"></path>
                <path d="M208.5,119 L208.5,115.5 L212.5,115.5 L212.5,119 L216,119 L216,123 L212.5,123 L212.5,126.5 L208.5,126.5 L208.5,123 L205,123 L205,119 L208.5,119 Z" id="合并形状" fill="#DBECFD"></path>
            </g>
        </g>
    </g>
</svg>