<?xml version="1.0" encoding="UTF-8"?>
<svg width="12px" height="12px" viewBox="0 0 12 12" version="1.1" xmlns="http://www.w3.org/2000/svg" xmlns:xlink="http://www.w3.org/1999/xlink">
    <!-- Generator: Sketch 52.5 (67469) - http://www.bohemiancoding.com/sketch -->
    <title>合并形状</title>
    <desc>Created with Sketch.</desc>
    <g id="小程序" stroke="none" stroke-width="1" fill="none" fill-rule="evenodd">
        <g id="搜索页2" transform="translate(-336.000000, -427.000000)" fill="#D3D8D8" fill-rule="nonzero">
            <g id="分组" transform="translate(-25.000000, 381.000000)">
                <path d="M366.333333,51.3333333 L366.333333,44.6666667 C366.333333,44.2984768 366.63181,44 367,44 C367.36819,44 367.666667,44.2984768 367.666667,44.6666667 L367.666667,51.3333333 L374.333333,51.3333333 C374.701523,51.3333333 375,51.6318102 375,52 C375,52.3681898 374.701523,52.6666667 374.333333,52.6666667 L367.666667,52.6666667 L367.666667,59.3333333 C367.666667,59.7015232 367.36819,60 367,60 C366.63181,60 366.333333,59.7015232 366.333333,59.3333333 L366.333333,52.6666667 L359.666667,52.6666667 C359.298477,52.6666667 359,52.3681898 359,52 C359,51.6318102 359.298477,51.3333333 359.666667,51.3333333 L366.333333,51.3333333 Z" id="合并形状" transform="translate(367.000000, 52.000000) rotate(-315.000000) translate(-367.000000, -52.000000) "></path>
            </g>
        </g>
    </g>
</svg>