<?xml version="1.0" encoding="UTF-8"?>
<svg width="24px" height="22px" viewBox="0 0 24 22" version="1.1" xmlns="http://www.w3.org/2000/svg" xmlns:xlink="http://www.w3.org/1999/xlink">
    <!-- Generator: Sketch 52.5 (67469) - http://www.bohemiancoding.com/sketch -->
    <title>爱心</title>
    <desc>Created with Sketch.</desc>
    <g id="页面-1" stroke="none" stroke-width="1" fill="none" fill-rule="evenodd">
        <g id="病症卡-症状" transform="translate(-176.000000, -180.000000)">
            <g id="病症上部分" transform="translate(0.000000, 118.000000)">
                <g id="爱心" transform="translate(176.000000, 62.000000)">
                    <rect id="矩形" fill="#000000" opacity="0" x="-1.0125234e-13" y="0" width="24" height="24"></rect>
                    <path d="M0,7.4732667 C5.05457197e-16,11.6006379 3.34589547,14.9465334 7.4732667,14.9465334 C11.6006379,14.9465334 14.9465334,11.6006379 14.9465334,7.4732667 C14.9465334,3.34589547 11.6006379,2.52728598e-16 7.4732667,0 C3.34589547,-2.52728598e-16 5.05457197e-16,3.34589547 0,7.4732667 Z" id="路径" fill="#8CF6FB"></path>
                    <path d="M17.2210059,1.94954783 C18.5856893,1.98204029 19.8528954,2.53441219 20.8276694,3.50918609 C22.7122323,5.39374901 22.9071871,8.28557828 21.2500714,9.94269395 L11.9897192,19.1705537 L2.76185943,9.91020149 C1.10474377,8.25308582 1.29969855,5.36125654 3.18426147,3.47669363 C4.12654291,2.50191971 5.42624147,1.94954783 6.79092496,1.91705537 C7.86317627,1.91705537 8.87044266,2.30696494 9.61776932,3.0542916 L10.8849754,4.3214977 L12.0222116,5.45873393 L13.1594479,4.3214977 L14.426654,3.0542916 C15.1414882,2.3394574 16.181247,1.91705537 17.2210059,1.94954783 Z M17.2210059,0.324924649 C15.7263525,0.292432188 14.2966841,0.877296545 13.2569253,1.91705537 L11.9897192,3.18426147 L10.7225131,1.91705537 C9.65026178,0.877296524 8.22059336,0.292432168 6.7584325,0.324924649 C5.00383946,0.35741711 3.28173887,1.07225131 2.04702524,2.3394574 C-0.487386953,4.87386959 -0.682341738,8.77296526 1.6246232,11.0474377 L11.9897192,21.4450262 L22.3873076,11.0474377 C24.6617801,8.7404728 24.4993178,4.84137713 21.9649056,2.3394574 C20.730192,1.07225131 19.0080914,0.35741711 17.2210059,0.324924649 Z" id="形状" fill="#3C2DCB" fill-rule="nonzero"></path>
                    <path d="M14.4591464,11.697287 L12.9969856,11.697287 L12.9969856,13.4843725 C12.9969856,13.939267 12.6395685,14.2966841 12.184674,14.2966841 C11.7297795,14.2966841 11.3723624,13.939267 11.3723624,13.4843725 L11.3723624,11.697287 L9.58527686,11.697287 C9.13038237,11.697287 8.77296526,11.3398699 8.77296526,10.8849754 C8.77296526,10.4300809 9.13038237,10.0726638 9.58527686,10.0726638 L11.3723624,10.0726638 L11.3723624,8.61050293 C11.3723624,8.15560844 11.7297795,7.79819133 12.184674,7.79819133 C12.6395685,7.79819133 12.9969856,8.15560844 12.9969856,8.61050293 L12.9969856,10.0726638 L14.4591464,10.0726638 C14.9140409,10.0726638 15.271458,10.4300809 15.271458,10.8849754 C15.271458,11.3398699 14.9140409,11.697287 14.4591464,11.697287 Z" id="路径" fill="#D098FF"></path>
                </g>
            </g>
        </g>
    </g>
</svg>