<?xml version="1.0" encoding="UTF-8"?>
<svg width="31px" height="30px" viewBox="0 0 31 30" version="1.1" xmlns="http://www.w3.org/2000/svg" xmlns:xlink="http://www.w3.org/1999/xlink">
    <!-- Generator: Sketch 52.5 (67469) - http://www.bohemiancoding.com/sketch -->
    <title>点赞icon</title>
    <desc>Created with Sketch.</desc>
    <g id="页面-1" stroke="none" stroke-width="1" fill="none" fill-rule="evenodd">
        <g id="症状卡" transform="translate(-106.000000, -1072.000000)" fill-rule="nonzero" stroke="#3C2DCB" stroke-width="1.5">
            <g id="点赞icon" transform="translate(106.000000, 1072.000000)">
                <path d="M6.10714363,29.249999 L25.211314,29.2499743 C25.8056941,29.2499736 26.3178735,28.8314251 26.4362649,28.2489552 L29.5638109,12.8618466 C29.5804672,12.7798997 29.5888584,12.6964882 29.5888584,12.6128657 C29.5888584,11.9225098 29.0292144,11.3628657 28.3388584,11.3628657 L18.1600375,11.3628657 L18.4174543,10.4160927 C19.514267,6.38204092 19.5485342,3.62872284 18.6213075,2.19553047 C17.4598986,0.400368172 15.4359993,0.337840317 13.9716918,1.62950581 C13.5339032,2.01567912 13.3709846,2.53253236 13.1929233,3.92718343 C12.9214317,6.05362042 12.7138262,6.96446917 12.0073126,8.28636591 C11.0390626,10.0979752 9.35070827,11.3704054 6.98810351,12.1005208 C6.46434543,12.2623777 6.10716113,12.7466083 6.10716011,13.2948049 L6.10714363,29.249999 Z" id="矩形"></path>
                <path d="M6.75,29.25 L6.75,12.5357143 L1,12.5357143 C0.861928813,12.5357143 0.75,12.6476431 0.75,12.7857143 L0.75,29 C0.75,29.1380712 0.861928813,29.25 1,29.25 L6.75,29.25 Z" id="矩形"></path>
            </g>
        </g>
    </g>
</svg>