<?xml version="1.0" encoding="UTF-8"?>
<svg width="24px" height="24px" viewBox="0 0 24 24" version="1.1" xmlns="http://www.w3.org/2000/svg" xmlns:xlink="http://www.w3.org/1999/xlink">
    <!-- Generator: Sketch 52.5 (67469) - http://www.bohemiancoding.com/sketch -->
    <title>详情</title>
    <desc>Created with Sketch.</desc>
    <g id="页面-1" stroke="none" stroke-width="1" fill="none" fill-rule="evenodd">
        <g id="病症卡-症状" transform="translate(-63.000000, -180.000000)" fill-rule="nonzero">
            <g id="病症上部分" transform="translate(0.000000, 118.000000)">
                <g id="详情" transform="translate(63.000000, 62.000000)">
                    <rect id="矩形" fill="#8CF6FB" x="0.149068323" y="0.571428571" width="10.7329193" height="12.5714286" rx="2"></rect>
                    <ellipse id="椭圆形" fill="#8CF6FB" cx="14.4596273" cy="16.5714286" rx="2.38509317" ry="2.28571429"></ellipse>
                    <path d="M10.3943127,21.7959754 L2.71044649,21.7959754 C2.23232535,21.7959754 1.85661401,21.4204087 1.85661401,20.9795918 L1.85661401,3.02046518 C1.85661401,2.56331434 2.23232535,2.20408163 2.71044649,2.20408163 L19.7858438,2.20408163 C20.2468817,2.20408163 20.6395272,2.56331434 20.6395272,3.02046518 L20.6395272,10.3673184 C20.6395272,10.818255 21.021887,11.183702 21.4933597,11.183702 C21.9648324,11.183702 22.3471921,10.8182265 22.3471921,10.3673184 L22.3471921,2.20405313 C22.3471921,1.30608539 21.5786863,0.571428571 20.6395272,0.571428571 L1.8565842,0.571428571 C0.917425126,0.571428571 0.149068323,1.30608539 0.149068323,2.20405313 L0.149068323,21.7959469 C0.149068323,22.6939146 0.917425126,23.4285714 1.8565842,23.4285714 L10.3943127,23.4285714 C10.8659344,23.4285714 11.2481451,23.0630959 11.2481451,22.6121879 C11.2481451,22.1614509 10.8659046,21.7959754 10.3943127,21.7959754 Z M23.6585445,21.9444347 L21.4387709,19.8220199 C21.2679686,19.658709 21.0971962,19.658709 20.9263939,19.658709 C20.414166,19.658709 20.0726807,19.9853023 20.0726807,20.4750925 C20.0726807,20.6384034 20.0726807,20.8015718 20.243483,20.9648542 L22.4632566,23.087269 C22.634029,23.2505799 22.8047121,23.4138623 23.1462868,23.4138623 C23.6585445,23.4138623 24,23.087269 24,22.5974788 C23.9999702,22.4343389 23.829317,22.1077456 23.6585445,21.9444347 Z" id="形状" fill="#3C2DCB"></path>
                    <path d="M16.7504241,11.5312721 C14.0638224,11.5312721 11.8860546,13.6829237 11.8860546,16.3371345 C11.8860546,18.9912055 14.0638507,21.1428571 16.7504241,21.1428571 C19.4370257,21.1428571 21.6149068,18.9912055 21.6149068,16.3371345 C21.6149068,13.6829237 19.4370257,11.5312721 16.7504241,11.5312721 Z M16.7504241,19.5409216 C15.5748094,19.5672131 14.4770216,18.9627324 13.8812164,17.9611381 C13.2854395,16.9595998 13.2850714,15.7178299 13.8803671,14.7160398 C14.4756627,13.7141938 15.5731956,13.1090977 16.7488103,13.1347459 C18.5111991,13.1732602 19.9195869,14.5955185 19.9200965,16.3371066 C19.9204929,18.0786108 18.5127845,19.5015963 16.7504241,19.5409216 Z M17.5726041,6.74473671 L4.57470777,6.74473671 C4.13455649,6.74389761 3.77789438,6.39153558 3.77693181,5.95657907 L3.77693181,5.9309029 C3.77693181,5.49678548 4.13529258,5.14285714 4.57470777,5.14285714 L17.5726041,5.14285714 C18.0120193,5.14285714 18.3702668,5.49678548 18.3702668,5.9309029 L18.3702668,5.95657907 C18.3702668,6.38910221 18.010264,6.74473671 17.5726041,6.74473671 Z M17.5206251,9.94857974 L4.52448404,9.94857974 C4.08421952,9.94771268 3.7275574,9.59535064 3.72670807,9.16036616 L3.72670807,9.13482984 C3.72670807,8.70071243 4.08506885,8.34661627 4.52448404,8.34661627 L17.5222388,8.34661627 C17.961654,8.34661627 18.3200431,8.70071243 18.3200431,9.13482984 L18.3200431,9.16036616 C18.3200431,9.59288931 17.9600403,9.94857974 17.5206251,9.94857974 Z M9.45541274,13.1444234 L4.56666745,13.1444234 C4.12640292,13.1435844 3.76974081,12.7912223 3.76889148,12.3562658 L3.76889148,12.3307015 C3.76889148,11.8964443 4.12725225,11.5425439 4.56666745,11.5425439 L9.45541274,11.5425439 C9.89482794,11.5425439 10.2532453,11.8964722 10.2532453,12.3307015 L10.2532453,12.3562658 C10.2521978,12.7912223 9.89556402,13.1435844 9.45541274,13.1444234 Z" id="形状" fill="#D098FF"></path>
                </g>
            </g>
        </g>
    </g>
</svg>