<?xml version="1.0" encoding="UTF-8"?>
<svg width="24px" height="24px" viewBox="0 0 24 24" version="1.1" xmlns="http://www.w3.org/2000/svg" xmlns:xlink="http://www.w3.org/1999/xlink">
    <!-- Generator: Sketch 52.5 (67469) - http://www.bohemiancoding.com/sketch -->
    <title>评价</title>
    <desc>Created with Sketch.</desc>
    <g id="页面-1" stroke="none" stroke-width="1" fill="none" fill-rule="evenodd">
        <g id="病症卡-疾病详情" transform="translate(-250.000000, -1251.000000)" fill="#3C2DCB">
            <g id="分组" transform="translate(248.000000, 1251.000000)">
                <g id="评价" transform="translate(2.000000, 0.000000)">
                    <rect id="矩形" opacity="0" x="0" y="0" width="23.5402299" height="24"></rect>
                    <path d="M23.7235634,4.74033443 L11.5279155,17.6714238 L7.09410186,17.6714238 L7.09410186,13.1510122 L19.3340878,0.265126969 C19.6808121,-0.0883692422 20.2421329,-0.0883692422 20.5888571,0.265126969 L23.7235634,3.46105795 C24.0702876,3.81455412 24.0702876,4.38683822 23.7235634,4.74033443 Z M19.9610291,2.18268553 L8.86762731,14.0550945 L8.86762731,15.8632591 L10.6411528,15.8632591 L21.8427396,4.10114822 L19.9610291,2.18268553 Z M12.4146783,2.30112033 L1.77352547,2.30112033 L1.77352547,22.1909313 L21.2823055,22.1909313 L21.2823055,11.3419435 C21.2823055,10.6864838 21.4702993,10.5508715 22.1132023,10.5508715 C22.756992,10.5508715 23.055831,10.6864838 23.055831,11.3419435 L23.055831,22.1909313 C23.055831,23.0642748 22.1389183,23.9990959 21.2823055,23.9990959 L1.77352547,23.9990959 C0.916912667,23.9990959 0,23.0642748 0,22.1909313 L0,2.30112033 C0,1.42687273 0.916912667,0.492955688 1.77352547,0.492955688 L12.4146783,0.492955688 C13.0575812,0.492955688 13.1905956,0.798535523 13.1905956,1.45399521 C13.1905956,2.1085508 13.0575812,2.30112033 12.4146783,2.30112033 Z" id="形状" fill-rule="nonzero"></path>
                </g>
            </g>
        </g>
    </g>
</svg>