<?xml version="1.0" encoding="UTF-8"?>
<svg width="24px" height="24px" viewBox="0 0 24 24" version="1.1" xmlns="http://www.w3.org/2000/svg" xmlns:xlink="http://www.w3.org/1999/xlink">
    <!-- Generator: Sketch 52.5 (67469) - http://www.bohemiancoding.com/sketch -->
    <title>医疗</title>
    <desc>Created with Sketch.</desc>
    <g id="页面-1" stroke="none" stroke-width="1" fill="none" fill-rule="evenodd">
        <g id="病症卡-症状" transform="translate(-288.000000, -180.000000)">
            <g id="病症上部分" transform="translate(0.000000, 118.000000)">
                <g id="医疗" transform="translate(288.000000, 62.000000)">
                    <path d="M12.478125,17.765625 C12.478125,18.1508203 12.2615625,18.478125 12.0066964,18.478125 L3.04955357,18.478125 C2.7946875,18.478125 2.578125,18.1508203 2.578125,17.765625 L2.578125,7.790625 C2.578125,7.40542969 2.7946875,7.078125 3.04955357,7.078125 L12.0066964,7.078125 C12.2615625,7.078125 12.478125,7.40542969 12.478125,7.790625 L12.478125,17.765625 Z" id="路径-copy" fill="#8CF6FB" fill-rule="nonzero"></path>
                    <path d="M15.853125,13.378125 L12.928125,13.378125 L12.928125,10.453125 C12.928125,9.958125 12.523125,9.553125 12.028125,9.553125 C11.533125,9.553125 11.128125,9.958125 11.128125,10.453125 L11.128125,13.378125 L8.203125,13.378125 C7.708125,13.378125 7.303125,13.783125 7.303125,14.278125 C7.303125,14.773125 7.708125,15.178125 8.203125,15.178125 L11.128125,15.178125 L11.128125,18.103125 C11.128125,18.598125 11.533125,19.003125 12.028125,19.003125 C12.523125,19.003125 12.928125,18.598125 12.928125,18.103125 L12.928125,15.178125 L15.853125,15.178125 C16.348125,15.178125 16.753125,14.773125 16.753125,14.278125 C16.753125,13.783125 16.348125,13.378125 15.853125,13.378125 Z" id="路径" fill="#D098FF"></path>
                    <path d="M20.578125,5.278125 L16.753125,5.278125 L16.753125,1.678125 C16.753125,1.183125 16.348125,0.778125 15.853125,0.778125 L8.203125,0.778125 C7.708125,0.778125 7.303125,1.183125 7.303125,1.678125 L7.303125,5.278125 L3.478125,5.278125 C1.993125,5.278125 0.778125,6.493125 0.778125,7.978125 L0.778125,20.578125 C0.778125,22.063125 1.993125,23.278125 3.478125,23.278125 L20.578125,23.278125 C22.063125,23.278125 23.278125,22.063125 23.278125,20.578125 L23.278125,7.978125 C23.278125,6.493125 22.063125,5.278125 20.578125,5.278125 Z M9.103125,2.578125 L14.953125,2.578125 L14.953125,5.278125 L9.103125,5.278125 L9.103125,2.578125 Z M21.478125,20.578125 C21.478125,21.0646875 21.0646875,21.478125 20.578125,21.478125 L3.478125,21.478125 C2.9915625,21.478125 2.578125,21.0646875 2.578125,20.578125 L2.578125,7.978125 C2.578125,7.4915625 2.9915625,7.078125 3.478125,7.078125 L20.578125,7.078125 C21.0646875,7.078125 21.478125,7.4915625 21.478125,7.978125 L21.478125,20.578125 Z" id="形状" fill="#3C2DCB" fill-rule="nonzero"></path>
                </g>
            </g>
        </g>
    </g>
</svg>