<?xml version="1.0" encoding="UTF-8"?>
<svg width="96px" height="113px" viewBox="0 0 96 113" version="1.1" xmlns="http://www.w3.org/2000/svg" xmlns:xlink="http://www.w3.org/1999/xlink">
    <!-- Generator: Sketch 52.5 (67469) - http://www.bohemiancoding.com/sketch -->
    <title>logo copy</title>
    <desc>Created with Sketch.</desc>
    <g id="小程序" stroke="none" stroke-width="1" fill="none" fill-rule="evenodd">
        <g id="登录页-copy-4" transform="translate(-140.000000, -144.000000)" fill="#3E4DC1">
            <g id="logo-copy" transform="translate(140.000000, 144.000000)">
                <path d="M16.8888889,99.8598596 L16.8888889,101.88851 L22,101.88851 L22,102.166098 C22,103.270667 21.1045695,104.166098 20,104.166098 L16.8888889,104.166098 L16.8888889,109.447099 C16.8888889,111.149033 16,112 14.2469136,112 L10.7160494,112 L10.7160494,109.872582 C11.654321,109.947668 12.5679012,109.872582 13.4320988,109.872582 C14.1481481,109.872582 14.5185185,109.522184 14.5185185,108.846416 L14.5185185,104.166098 L-1.95399252e-14,104.166098 L-1.95399252e-14,103.88851 C-1.9675196e-14,102.78394 0.8954305,101.88851 2,101.88851 L14.5185185,101.88851 L14.5185185,99.8612059 L2.69135802,99.8612059 L2.69135802,99.7337884 C2.69135802,98.6292189 3.58678853,97.7337884 4.69135802,97.7337884 L16.4938272,97.7337884 L16.4938272,95.9817975 L2.69135802,95.9817975 L2.69135802,95.9044369 C2.69135802,94.7998674 3.58678853,93.9044369 4.69135802,93.9044369 L16.4938272,93.9044369 L16.4938272,92.152446 L2.69135802,92.152446 L2.69135802,92 C2.69135802,90.8954305 3.58678853,90 4.69135802,90 L18.8148148,90 L18.8148148,97.8612059 C18.8148148,98.940976 17.9591407,99.8208928 16.8888889,99.8598596 Z M5.72839506,104.716724 C7.40740741,105.918089 8.81481481,107.119454 9.95061728,108.320819 L8.27160494,109.997725 C7.28395062,108.846416 5.90123457,107.620023 4.12345679,106.293515 L5.72839506,104.716724 Z M33.5630252,97.1705607 C32.907563,98.1985981 32.2016807,99.046729 31.394958,99.7663551 L29.605042,98.0957944 C31.2184874,96.6051402 32.4033613,94.8060748 33.1092437,92.6985981 L35.2773109,93.3154206 C35.0756303,93.9065421 34.8739496,94.4462617 34.6722689,94.9602804 L44.302521,94.9602804 L44.302521,95.1705607 C44.302521,96.2751302 43.4070905,97.1705607 42.302521,97.1705607 L39.0840336,97.1705607 L39.0840336,98.3014019 C39.0336134,98.9439252 38.9831933,99.5350467 38.907563,100.100467 L45.789916,100.100467 L45.789916,100.38785 C45.789916,101.49242 44.8944855,102.38785 43.789916,102.38785 L38.4285714,102.38785 C38.0756303,103.570093 37.5714286,104.598131 36.9411765,105.471963 C35.6806723,107.091121 33.6386555,108.350467 30.7647059,109.275701 L29.4789916,107.219626 C32.2521008,106.345794 34.1428571,105.214953 35.1764706,103.878505 C35.4789916,103.415888 35.7563025,102.901869 35.9579832,102.38785 L29.6302521,102.38785 L29.6302521,102.100467 C29.6302521,100.995898 30.5256826,100.100467 31.6302521,100.100467 L36.5882353,100.100467 C36.6890756,99.5093458 36.7394958,98.9182243 36.7647059,98.3014019 L36.7647059,97.1705607 L33.5630252,97.1705607 Z M28,90 L46.1932773,90 L46.1932773,90.2873832 C46.1932773,91.3919527 45.2978468,92.2873832 44.1932773,92.2873832 L28.2941176,92.2873832 L28.2941176,109.661215 L47,109.661215 L47,110 C47,111.104569 46.1045695,112 45,112 L26,112 L26,92 C26,90.8954305 26.8954305,90 28,90 Z M38.2631579,103 C40.7105263,104.048035 42.9473684,105.358079 45,106.90393 L43.6315789,109 C41.4736842,107.218341 39.2631579,105.829694 37,104.80786 L38.2631579,103 Z M66.7266187,111.827623 L64.1582734,111.827623 L63.5539568,109.635974 L66.2482014,109.685225 C67.1043165,109.685225 67.557554,109.217345 67.557554,108.30621 L67.557554,92.767666 L58.0395683,92.767666 L58.0395683,92.5021413 C58.0395683,91.3975718 58.9349988,90.5021413 60.0395683,90.5021413 L70,90.5021413 L70,108.921842 C70,110.842612 68.8920863,111.827623 66.7266187,111.827623 Z M51,93.3340471 L51.442446,93.3340471 L51.442446,110 C51.442446,111.104569 50.5470155,112 49.442446,112 L49,112 L49,95.3340471 C49,94.2294776 49.8954305,93.3340471 51,93.3340471 Z M56.6402878,96.6830835 L64.2589928,96.6830835 L64.2589928,104.48394 C64.2589928,105.58851 63.3635623,106.48394 62.2589928,106.48394 L54.6402878,106.48394 L54.6402878,98.6830835 C54.6402878,97.578514 55.5357183,96.6830835 56.6402878,96.6830835 Z M53.3561151,89 C54.4892086,90.3297645 55.4964029,91.8072805 56.4028777,93.4079229 L54.2625899,94.4914347 C53.3057554,92.767666 52.2733813,91.2655246 51.1402878,89.9603854 L53.3561151,89 Z M62,102 L62,99 L59,99 C57.8954305,99 57,99.8954305 57,101 L57,104 L60,104 C61.1045695,104 62,103.104569 62,102 Z M93.8131148,92.2273212 L93.8131148,104.188901 L96,104.188901 L96,104.519744 C96,105.624313 95.1045695,106.519744 94,106.519744 L73,106.519744 L73,106.188901 C73,105.084331 73.8954305,104.188901 75,104.188901 L75.2874317,104.188901 L75.2874317,94.2273212 C75.2874317,93.1227517 76.1828622,92.2273212 77.2874317,92.2273212 L80.6666667,92.2273212 L80.6666667,91 C80.6666667,89.8954305 81.5620972,89 82.6666667,89 L82.9289617,89 L82.9289617,92.2273212 L86.1967213,92.2273212 L86.1967213,91 C86.1967213,89.8954305 87.0921518,89 88.1967213,89 L88.4590164,89 L88.4590164,92.2273212 L93.8131148,92.2273212 Z M77.5748634,104.188901 L80.6666667,104.188901 L80.6666667,100.295624 L77.5748634,100.295624 L77.5748634,104.188901 Z M82.9289617,104.188901 L86.1967213,104.188901 L86.1967213,100.295624 L82.9289617,100.295624 L82.9289617,104.188901 Z M88.4590164,104.188901 L89.5256831,104.188901 C90.6302526,104.188901 91.5256831,103.29347 91.5256831,102.188901 L91.5256831,100.295624 L88.4590164,100.295624 L88.4590164,104.188901 Z M77.5748634,98.0672359 L80.6666667,98.0672359 L80.6666667,94.4557097 L79.5748634,94.4557097 C78.4702939,94.4557097 77.5748634,95.3511402 77.5748634,96.4557097 L77.5748634,98.0672359 Z M82.9289617,94.4557097 L82.9289617,98.0672359 L86.1967213,98.0672359 L86.1967213,94.4557097 L82.9289617,94.4557097 Z M88.4590164,94.4557097 L88.4590164,98.0672359 L91.5256831,98.0672359 L91.5256831,94.4557097 L88.4590164,94.4557097 Z M88.0568306,106.801494 C90.8721311,107.928495 93.4360656,109.286019 95.7486339,110.89968 L94.4918033,112.948773 C91.9781421,111.104589 89.4393443,109.670224 86.8502732,108.620064 L88.0568306,106.801494 Z M80.8928962,106.801494 L82.3759563,108.543223 C80.2142077,110.310566 77.5497268,111.796158 74.4327869,113 L73.4021858,110.745998 C76.4437158,109.721451 78.9322404,108.415155 80.8928962,106.801494 Z" id="寻医问典-copy-2"></path>
                <path d="M26.7150091,5.8662048 L67.4625732,0 L68.0741185,0.600215821 L27.7197238,7.34919205 L30.479276,9.09176928 L70.888889,6.11310532 L70.888889,67.0967744 C69.9242586,63.7078186 68.2185233,61.7205661 65.7716831,61.1350168 C62.6675807,60.3921792 51.1644451,61.1350168 47.9444445,61.1350168 C42.962963,61.1350168 37.9814815,61.1350168 33,61.1350168 L33,61.1350168 C28.581722,61.1350168 25,57.5532948 25,53.1350168 L25,7.84579571 C25,6.85131905 25.7306806,6.00791321 26.7150091,5.8662048 Z" id="logo"></path>
            </g>
        </g>
    </g>
</svg>